<?xml version="1.0" encoding="UTF-8" standalone="no"?>
<!-- Created with Inkscape (http://www.inkscape.org/) -->

<svg
   width="100"
   height="100"
   viewBox="0 0 26.458334 26.458332"
   version="1.1"
   id="svg1"
   xmlns:xlink="http://www.w3.org/1999/xlink"
   xmlns="http://www.w3.org/2000/svg"
   xmlns:svg="http://www.w3.org/2000/svg">
  <defs
     id="defs1">
    <linearGradient
       id="linearGradient5">
      <stop
         style="stop-color:#d2d2d2;stop-opacity:1;"
         offset="0.17490953"
         id="stop5" />
      <stop
         style="stop-color:#ffffff;stop-opacity:1;"
         offset="1"
         id="stop6" />
    </linearGradient>
    <linearGradient
       id="linearGradient2">
      <stop
         style="stop-color:#064789;stop-opacity:1;"
         offset="0"
         id="stop2" />
      <stop
         style="stop-color:#427aa1;stop-opacity:1;"
         offset="1"
         id="stop3" />
    </linearGradient>
    <linearGradient
       xlink:href="#linearGradient2"
       id="linearGradient3"
       x1="15.663945"
       y1="31.495718"
       x2="34.372799"
       y2="50.204571"
       gradientUnits="userSpaceOnUse" />
    <linearGradient
       xlink:href="#linearGradient5"
       id="linearGradient6"
       x1="18.967985"
       y1="34.136868"
       x2="30.095976"
       y2="45.264858"
       gradientUnits="userSpaceOnUse" />
  </defs>
  <g
     id="layer1"
     transform="translate(-11.789212,-24.679256)">
    <g
       id="g6"
       transform="matrix(0.81808538,0,0,0.81808538,4.659439,4.4895177)">
      <path
         style="fill:url(#linearGradient3);fill-opacity:1;stroke-width:0.145372"
         d="m 13.226096,46.448641 c -0.792895,-1.646583 -1.230199,-3.196528 -1.381823,-4.89761 -0.07715,-0.865582 -0.07152,-11.622584 0.0062,-11.851742 0.163877,-0.483157 0.351337,-0.58944 1.572819,-0.891734 2.65229,-0.656395 6.937274,-2.197026 10.426483,-3.748759 0.773086,-0.34381 0.885961,-0.380099 1.180488,-0.379534 0.260352,4.37e-4 0.407951,0.03698 0.735938,0.181895 4.143596,1.830743 7.43436,3.023279 10.97475,3.977131 0.789029,0.200644 1.487233,0.694107 1.487233,0.943095 l 0.01559,5.051462 c 0.01645,5.327468 -0.01616,6.600692 -0.196363,7.666938 -0.452754,2.678941 -1.577574,5.057321 -3.528949,7.461804 -2.93431,3.615654 -8.587726,7.027707 -9.442972,7.059264 -0.837587,0.03091 -8.6484,-3.92475 -11.849406,-10.57221 z m 8.92441,0.754419 -1.45e-4,-1.215974 -0.219503,-0.09024 c -0.674373,-0.277251 -1.105693,-1.007505 -1.050522,-1.778601 0.02994,-0.418396 0.170488,-0.745306 0.451516,-1.050187 0.279801,-0.303547 0.472383,-0.419105 0.866893,-0.520174 0.376998,-0.09658 0.824875,-0.04347 1.227237,0.145531 0.492412,0.231301 0.892954,0.806792 0.960292,1.379725 0.08737,0.743361 -0.420236,1.604839 -1.087855,1.846253 l -0.17328,0.06266 1.4e-5,1.207689 1.5e-5,1.207691 h 4.320652 c 3.999225,0 4.332714,-0.0066 4.482797,-0.08872 0.206251,-0.112857 0.361664,-0.31031 0.430105,-0.54645 0.03652,-0.126013 0.04883,-2.197029 0.03844,-6.467644 -0.01404,-5.773454 -0.02227,-6.295029 -0.101588,-6.439743 -0.09471,-0.172811 -3.618615,-3.636329 -3.861466,-3.795298 -0.146161,-0.09568 -0.298157,-0.09855 -5.024798,-0.09497 -2.680743,0.002 -4.959199,0.03789 -5.06749,0.04099 -0.241562,0.0069 -0.539199,0.301076 -0.63477,0.529808 -0.0556,0.133071 -0.06929,0.77823 -0.06929,3.266075 v 3.100246 c 1.873905,0.319048 2.116711,2.607751 0.616349,3.344259 l -0.255767,0.125552 -8.72e-4,3.198259 -7.27e-4,3.19826 c -1.45e-4,0.642915 1.025678,0.700091 1.025678,0.655014 0,-1.398302 0.0532,-4.356351 0.0532,-6.420471 0,-0.08859 0.412274,-0.485822 1.307453,-1.406587 0.406192,-0.4178 1.254828,-1.217104 1.254828,-1.217104 l -0.0021,-1.414029 -0.0021,-1.414026 c -1.484802,-0.692118 -1.437498,-2.682288 -0.171707,-3.343436 0.418824,-0.218761 1.005149,-0.220656 1.416801,-0.0055 1.088778,0.569118 1.604239,2.402495 -0.266497,3.344128 v 1.598642 c 0,0.581482 -0.02149,1.6548 -0.07294,1.706254 -0.863671,0.86367 -1.692952,1.698154 -2.542537,2.539684 0,0.772075 0.02127,5.365279 0.02127,6.036703 0.70986,0.02398 1.422171,0.0017 2.132656,-0.0083 z m 3.18891,-4.523783 h 2.331404 c 2.555651,0 2.502327,0.0076 2.502327,0.0076 0.381026,0 0.313784,0.946359 -0.02147,0.946359 0,0 -0.157148,0.0021 -2.386167,0.009 l -2.441669,0.0076 c -0.426667,0.0013 -0.434471,-0.970651 0.01558,-0.970651 z m -0.778579,-1.524214 c -0.486266,0 -0.455782,-0.962746 0.0062,-0.962746 0,0 1.445648,-0.02676 2.875071,-0.01737 2.547454,0.01673 2.750374,0.02456 2.750374,0.02456 0.378892,0 0.330536,0.95941 -0.02007,0.95941 0,0 -0.174495,0.0076 -2.909804,0.01772 -1.528139,0.0056 -2.701713,-0.02157 -2.701713,-0.02157 z M 24.43283,38.742107 c -0.557948,0 -0.526672,-0.982877 -0.02479,-0.982378 0,0 1.050049,-0.0043 2.934013,0.0064 l 2.755372,0.01556 c 0.479594,0.0027 0.442673,0.948752 -0.0035,0.948752 h -1.70688 c -2.774299,0 -3.954262,0.01169 -3.954262,0.01169 z m 3.476469,-2.972908 c -0.326072,-0.01557 -0.382189,-0.03338 -0.474375,-0.150577 -0.09999,-0.12711 -0.104554,-0.200745 -0.104554,-1.684676 0,-1.367688 -0.03174,-1.339558 0.04239,-1.485913 0.102925,-0.203197 0.414439,-0.139478 0.523142,-0.0412 0.06272,0.0567 0.766728,0.708525 1.54886,1.468287 1.176095,1.142455 1.427733,1.411628 1.454862,1.556233 0.02426,0.129301 0.0091,0.201035 -0.05816,0.275366 -0.08607,0.09511 -0.157465,0.09997 -1.326652,0.09033 -0.679627,-0.0056 -1.402105,-0.01814 -1.605508,-0.02785 z m -4.899128,9.166845 c 0.495344,-0.302014 0.495344,-1.031921 0,-1.333935 -0.486513,-0.29663 -1.115509,0.07945 -1.115509,0.666968 0,0.425038 0.332369,0.768875 0.743233,0.768875 0.114428,0 0.279042,-0.04506 0.372276,-0.101908 z M 17.842853,40.32566 c 0.483679,-0.346313 0.477275,-1.04057 -0.01236,-1.339099 -0.254005,-0.154869 -0.65298,-0.139965 -0.857381,0.03203 -0.215207,0.181085 -0.300502,0.379844 -0.309796,0.650451 -0.02006,0.584167 0.715268,0.989028 1.179529,0.65662 z m 4.705764,-4.825849 c 0.446804,-0.244277 0.43446,-1.072709 0.02038,-1.328573 -0.17004,-0.10507 -0.532534,-0.120924 -0.755908,-0.02527 -0.439984,0.188418 -0.532236,1.104978 -0.05735,1.35564 0.223167,0.117796 0.551976,0.129905 0.792879,-0.0018 z"
         id="path1-5" />
      <path
         id="path1"
         d="m 23.409547,30.964717 c -2.680743,0.002 -4.9591,0.03772 -5.067391,0.04082 -0.241562,0.0069 -0.539532,0.301468 -0.635103,0.5302 -0.0556,0.133071 -0.06925,0.778106 -0.06925,3.265951 v 3.100069 c 1.873905,0.319048 2.116862,2.607991 0.6165,3.344499 l -0.255798,0.125573 -0.001,3.198255 -5.17e-4,3.198254 c -1.41e-4,0.627847 0.978369,0.696405 1.024227,0.657324 l 5.17e-4,-5.16e-4 5.17e-4,-5.17e-4 v -5.17e-4 l 5.16e-4,-5.17e-4 v -5.16e-4 c 0,-1.398302 0.05323,-4.35616 0.05323,-6.42028 0,-0.08859 0.412235,-0.485868 1.307414,-1.406633 0.406192,-0.4178 1.254704,-1.21698 1.254704,-1.21698 l -0.0021,-1.414384 -0.0021,-1.413867 c -1.484802,-0.692118 -1.437357,-2.682317 -0.171566,-3.343465 0.418824,-0.218761 1.004799,-0.220841 1.416451,-0.0057 1.088778,0.569118 1.604602,2.402866 -0.266134,3.344499 v 1.598352 c 0,0.581482 -0.02193,1.654902 -0.07338,1.706356 -0.863671,0.86367 -1.692896,1.698367 -2.542481,2.539897 0,0.772075 0.02119,5.3649 0.02119,6.036324 0.70986,0.02398 1.422201,0.0017 2.132686,-0.0083 v -1.215946 -1.215947 l -0.219625,-0.08992 c -0.674373,-0.277251 -1.105753,-1.007607 -1.050582,-1.778703 0.02994,-0.418396 0.170624,-0.745184 0.451652,-1.050065 0.279801,-0.303547 0.472104,-0.419313 0.866614,-0.520382 0.376998,-0.09658 0.824953,-0.04327 1.227315,0.145727 0.492412,0.231301 0.89281,0.806828 0.960148,1.379761 0.08737,0.743361 -0.42017,1.604468 -1.087789,1.845882 l -0.173116,0.06305 v 1.207678 1.207678 h 4.320667 c 3.999225,0 4.332847,-0.0068 4.48293,-0.08888 0.206251,-0.112857 0.361507,-0.310597 0.429948,-0.546737 0.03652,-0.126013 0.04863,-2.196691 0.03824,-6.467306 -0.01404,-5.773454 -0.02197,-6.295203 -0.101286,-6.439917 -0.09471,-0.172811 -3.618929,-3.636148 -3.86178,-3.795117 -0.146161,-0.09568 -0.297858,-0.09866 -5.024499,-0.09508 z m 4.222998,1.349788 c 0.104332,0.0028 0.209198,0.04336 0.26355,0.0925 0.06272,0.0567 0.76661,0.708365 1.548742,1.468127 1.176095,1.142455 1.427563,1.411889 1.454692,1.556494 0.02426,0.129301 0.0094,0.201105 -0.05788,0.275436 -0.08607,0.09511 -0.157347,0.09956 -1.326534,0.08992 -0.679627,-0.0056 -1.402183,-0.01819 -1.605586,-0.0279 -0.326072,-0.01557 -0.382204,-0.03318 -0.47439,-0.150379 -0.09999,-0.12711 -0.104386,-0.200721 -0.104386,-1.684652 0,-1.367688 -0.03176,-1.339342 0.04237,-1.485697 0.05146,-0.101599 0.155084,-0.136657 0.259416,-0.133842 z m -5.421375,1.768884 c -0.1398,-0.0051 -0.286221,0.0147 -0.397908,0.06253 -0.439984,0.188418 -0.532247,1.105327 -0.05736,1.355989 0.223167,0.117796 0.551813,0.129638 0.792716,-0.0021 0.446804,-0.244277 0.434751,-1.072737 0.02067,-1.328601 -0.08502,-0.05253 -0.218317,-0.08271 -0.358118,-0.08785 z m 2.196765,3.676262 c 0,0 1.050224,-0.004 2.934188,0.0067 l 2.755388,0.0155 c 0.479594,0.0027 0.442555,0.948779 -0.0036,0.948779 h -1.706872 c -2.774299,0 -3.954281,0.01137 -3.954281,0.01137 -0.557948,0 -0.526687,-0.982868 -0.02481,-0.982369 z m -7.024377,1.120345 c -0.157044,0.0059 -0.30811,0.0525 -0.410311,0.138493 -0.215207,0.181085 -0.300248,0.379999 -0.309542,0.650606 -0.02006,0.584167 0.714996,0.989215 1.179257,0.656807 0.483679,-0.346313 0.477232,-1.040924 -0.0124,-1.339453 -0.127002,-0.07743 -0.289956,-0.11232 -0.447001,-0.106453 z m 10.058818,1.295011 c 2.547454,0.01673 2.750219,0.02481 2.750219,0.02481 0.378892,0 0.330453,0.959114 -0.02015,0.959114 0,0 -0.174591,0.0074 -2.9099,0.01757 -1.528139,0.0056 -2.701644,-0.02119 -2.701644,-0.02119 -0.486266,0 -0.455781,-0.962732 0.0062,-0.962732 0,0 1.445854,-0.02696 2.875277,-0.01757 z m -2.102714,2.50424 h 2.331123 c 2.555651,0 2.50269,0.0078 2.50269,0.0078 0.381026,0 0.31355,0.946195 -0.0217,0.946195 0,0 -0.156882,0.0024 -2.385901,0.0093 l -2.441711,0.0072 c -0.426667,0.0013 -0.434548,-0.970483 0.0155,-0.970483 z m -2.708879,0.819588 c -0.382153,0.0082 -0.735872,0.329857 -0.735872,0.770496 0,0.425038 0.332243,0.768945 0.743107,0.768945 0.114428,0 0.278836,-0.04547 0.37207,-0.102319 0.495344,-0.302014 0.495344,-1.031755 0,-1.333769 -0.121628,-0.07416 -0.251921,-0.106077 -0.379305,-0.103353 z"
         style="fill:url(#linearGradient6);fill-opacity:1" />
    </g>
  </g>
</svg>
